<svg height="128" viewBox="0 0 1024 1024" width="128" xmlns="http://www.w3.org/2000/svg"><g fill="#515151"><path d="m185.089445.011925 1.192533 1023.193053"/><path d="m61.165423.023851 19.080523-.023851 1.391288 1023.193053-19.080523.023851z"/><path d="m80.245946.023851 19.080523-.023851 1.391288 1023.193053-19.080523.023851z"/><path d="m99.326469.023851 19.080523-.023851 1.391288 1023.193053-19.080523.023851z"/><path d="m118.406992.023851 19.080523-.023851 1.391288 1023.193053-19.080523.023851z"/><path d="m137.487515.023851 19.080523-.023851 1.391289 1023.193053-19.080524.023851z"/><path d="m156.568038.023851 19.080524-.023851 1.391288 1023.193053-19.080523.023851z"/><path d="m175.648562.023851 19.080523-.023851 1.391288 1023.193053-19.080523.023851z"/><path d="m194.729085.023851 19.080523-.023851 1.391288 1023.193053-19.080523.023851z"/><path d="m213.809608.023851 19.080523-.023851 1.391288 1023.193053-19.080523.023851z"/><path d="m232.890131.023851 19.080523-.023851 1.391288 1023.193053-19.080523.023851z"/><path d="m251.970654.023851 19.080523-.023851 1.391288 1023.193053-19.080523.023851zm38.161046 0 19.080523-.023851 1.391289 1023.193053-19.080523.023851z"/><path d="m271.051177.023851 19.080523-.023851 1.391289 1023.193053-19.080524.023851z"/><path d="m955.465567 429.721207c-4.37262-27.030741-11.130305-53.663971-19.478034-79.899691-17.092969-52.073928-43.328688-101.365279-75.924582-145.091478-16.297947-21.863099-34.583448-42.533666-54.458993-61.216678-19.875545-19.080523-40.943623-36.571003-63.601744-52.073928s-46.508775-29.415806-71.154451-41.341133-50.483884-21.465589-77.117114-29.415807c-13.11786-3.975109-26.63323-7.155196-40.148601-9.937772-13.515371-2.385065-27.030741-5.167642-40.546111-6.360175l-10.335284-1.192532-10.335283-.795022c-6.757685-.397511-13.515371-1.192533-20.670567-1.192533l-20.670566-.397511h-389.560681v19.080523l249.239333-.397511h140.718858l19.875545.397511c6.757685 0 13.11786.795022 19.875545 1.192533l9.937773.795022 9.937772 1.192532c13.11786 1.590044 26.235719 3.975109 38.956068 6.360175 12.720349 2.782576 25.838208 5.962663 38.558557 9.540261 25.440698 7.552707 50.086373 16.695458 73.937028 28.223274 23.850654 11.527816 46.906286 24.645676 68.371874 39.75109 21.863099 15.105414 42.136155 31.800872 61.216679 50.086373 19.080523 18.285501 36.571003 38.161046 52.471438 59.229124 31.403361 42.136155 56.844058 89.439952 73.142005 139.923836 8.347729 25.043187 14.707903 50.881395 19.080524 77.117115 3.975109 26.235719 6.360174 52.471439 6.360174 78.707158s-2.385065 52.471439-6.360174 78.707158-10.732794 51.676417-19.080524 77.117114c-16.297947 50.483884-41.738644 97.39017-73.142005 139.923836-15.900436 21.068078-33.390915 40.943623-52.471438 59.229124s-39.353579 34.980959-61.216679 50.086373c-21.863099 15.105414-44.521221 28.223274-68.371874 39.75109-23.850654 11.527816-48.893841 20.670567-73.937028 28.223274-12.720349 3.975109-25.440698 6.757685-38.558557 9.540262-13.11786 2.385065-25.838208 4.770131-38.956068 6.360174l-9.937772 1.192533-9.937773.795021c-6.757685.397511-13.11786 1.192533-19.875545 1.192533l-19.478034.397511h-140.321347l-249.239333.397511v19.080523l249.239333-.397511h140.321347l20.273056-.397511c6.757685 0 13.515371-.795022 20.273056-1.192532l10.335283-.795022 10.335284-1.192533c13.515371-1.590044 27.030741-3.975109 40.546111-6.360174 13.515371-3.180087 26.63323-5.962663 40.148601-9.937773 26.235719-7.552707 52.073928-17.49048 77.117114-29.415806 24.645676-11.925327 48.49633-25.838208 71.154451-41.341134 22.658121-15.502925 43.726199-32.993405 63.601744-52.073927 19.875545-19.080523 38.161046-39.353579 54.458993-61.216679 32.595894-44.12371 58.831613-93.01755 75.924582-145.091478 8.74524-26.235719 15.502925-52.86895 19.478034-79.89969 4.37262-27.030741 6.360174-54.458993 6.757685-81.887246-.397511-28.620785-2.782576-56.049037-6.757685-83.079777z"/><path d="m917.702031 435.68387c-3.975109-25.043187-10.335283-49.688862-18.285501-73.937027-15.900436-48.49633-40.148601-93.812572-70.359429-134.358684-15.105414-20.273056-32.198383-39.353579-50.483884-56.844058s-37.763535-33.788426-58.831613-48.098819c-21.068078-14.310392-42.931177-27.030741-65.589298-38.161046-23.055632-11.130305-46.906286-19.875545-71.154451-27.030741-12.322838-3.577598-24.645676-6.360174-36.968514-9.142751-12.322838-2.385065-25.043187-4.770131-37.763535-5.962663l-9.540262-1.192533-9.540261-.795022c-6.360174-.397511-12.720349-1.192533-19.080523-1.192533l-19.080523-.397511h-140.718859l-248.444311.397511v19.080524l249.239333-.397511h140.321347l18.285502.397511c5.962663 0 12.322838.795022 18.285501 1.192532l9.142751.795022 9.14275 1.192533c11.925327 1.192533 24.248165 3.577598 36.173492 5.565152 11.925327 2.782576 23.850654 5.167642 35.37847 8.74524 23.453143 6.757685 46.111264 15.502925 68.371875 25.838208 21.863099 10.732794 42.931177 22.658121 63.204233 36.571003 20.273056 13.912881 38.956068 29.415806 56.446547 46.111264 17.49048 16.695458 33.788426 34.980959 48.49633 54.458993 29.018296 38.956068 52.471439 82.682267 67.576853 128.793532 7.552707 23.055632 13.912881 46.906286 17.490479 70.75694 3.975109 24.248165 5.565153 48.49633 5.962664 72.744494 0 24.248165-1.987554 48.49633-5.962664 72.744494-3.577598 24.248165-9.937772 47.701308-17.490479 70.75694-15.105414 46.508775-38.558557 89.837463-67.576853 128.793531-14.707903 19.478034-31.00585 37.763535-48.49633 54.458994-17.49048 16.695458-36.173492 32.595894-56.446547 46.111264-19.875545 13.912881-41.341133 26.235719-63.204233 36.571002-21.863099 10.335283-44.918732 19.080523-68.371875 25.838209-11.527816 3.577598-23.453143 6.360174-35.37847 8.74524-11.925327 2.385065-23.850654 4.37262-36.173492 5.565152l-9.14275 1.192533-9.142751.795022c-5.962663.397511-12.322838 1.192533-18.285501 1.192532l-18.285502.397511h-139.923836l-249.636844 1.987555v19.080523l249.239333-.397511h140.321347l19.080524-.397511c6.360174 0 12.720349-.795022 19.080523-1.192533l9.540261-.795021 9.540262-1.192533c12.720349-1.192533 25.043187-3.577598 37.763535-5.962664 12.322838-2.782576 24.645676-5.565153 36.968514-9.14275 24.248165-7.155196 48.098819-15.900436 71.154451-27.030741s44.918732-23.850654 65.589298-38.161047c21.068078-14.310392 40.546112-30.608339 58.831613-48.098818 18.285501-17.49048 34.980959-36.571003 50.483884-56.844059 30.210828-40.546112 54.458993-85.862354 70.359429-134.358683 7.950218-24.248165 14.310392-48.893841 18.285501-73.937028s5.962663-50.483884 5.962664-75.52707c-.397511-25.838208-2.385065-50.881395-6.360175-76.322093z"/><path d="m879.938496 442.044045c-3.577598-23.055632-9.540262-45.713753-16.695458-67.974364-14.707903-44.521221-36.968514-86.259865-64.794276-123.62589-56.049037-74.334538-136.346238-130.781086-226.183701-156.619294-11.130305-3.577598-22.658121-5.962663-33.788427-8.347728-11.527816-1.987554-23.055632-4.37262-34.583448-5.565153l-8.74524-1.192533-8.745239-.795022c-5.962663-.397511-11.527816-1.192533-17.49048-1.192532l-17.49048-.397511h-140.321347l-249.239333.795022v19.080523l249.239333-.397511h140.321347l16.695458.397511c5.565153 0 11.130305.795022 16.695458 1.192532l8.347729.795022 8.347729 1.192533c11.130305 1.192533 21.863099 3.180087 32.993404 5.167642 10.732794 2.385065 21.863099 4.770131 32.595894 7.950218 85.862354 24.645676 162.581958 78.309647 216.245929 149.464097 26.63323 35.775981 48.098819 75.527071 62.0117 118.060737 7.155196 21.068078 12.720349 42.931177 15.900436 64.794277 3.577598 21.863099 5.167642 44.12371 5.565152 66.781831 0 22.26061-1.987554 44.521221-5.565152 66.781831-3.577598 21.863099-9.142751 43.726199-15.900436 64.794276-13.912881 42.533666-35.37847 82.284756-62.0117 118.060737-53.663971 71.154451-130.383575 125.215933-216.245929 149.464098-10.732794 3.180087-21.465589 5.565153-32.595894 7.950218-11.130305 1.987554-21.863099 3.975109-32.993404 5.167642l-8.347729 1.192532-8.347729.795022c-5.565153.397511-11.130305 1.192533-16.695458 1.192533l-16.695458.397511h-140.321347l-249.239333.397511v19.080523l249.239333-.397511h139.923837l17.490479-.397511c5.962663 0 11.527816-.795022 17.49048-1.192533l8.745239-.795022 8.74524-1.192532c11.527816-1.192533 23.055632-3.577598 34.583448-5.565153 11.527816-2.385065 22.658121-5.167642 33.788427-8.347729 89.837463-25.838208 170.134665-81.887245 226.183701-156.619294 27.825763-37.366024 50.086373-79.104669 64.794276-123.625889 7.155196-22.26061 13.11786-44.918732 16.695458-67.974364s5.565153-46.508775 5.565153-69.564407c.397511-23.055632-1.590044-46.111264-5.167642-69.166896z"/><path d="m842.174961 448.006708c-3.180087-21.068078-8.74524-41.738644-15.105414-62.0117-13.11786-40.546112-33.788426-78.309647-58.831613-112.495584-51.278906-67.974364-124.420911-119.25327-206.308157-142.706413-10.335283-3.180087-20.670567-5.565153-31.00585-7.950218-10.335283-1.987554-21.068078-3.975109-31.403361-5.167642l-7.950218-1.192532-7.950218-.795022c-5.167642-.397511-10.732794-1.192533-15.900436-1.192533l-15.900436-.397511h-140.321347l-249.636844 1.192533v19.080523l249.239333-.397511h140.321347l15.105415.397511c5.167642 0 9.937772.795022 15.105414.795022l7.552707.397511 7.552707.795022c9.937772 1.192533 19.875545 3.180087 29.813317 4.77013 9.937772 2.385065 19.875545 4.37262 29.415807 7.552707 77.912136 22.26061 147.874054 71.154451 196.370384 135.948728 24.248165 32.595894 43.726199 68.769385 56.049036 107.327942 6.360174 19.080523 11.527816 38.956068 14.707904 58.831613 3.180087 19.875545 4.770131 40.148601 4.77013 60.421657s-1.590044 40.546112-4.77013 60.421656c-3.180087 19.875545-8.347729 39.75109-14.707904 58.831613-12.720349 38.558557-32.198383 74.732049-56.049036 107.327943-48.893841 64.794276-118.458248 113.688117-196.370384 135.948727-9.540262 2.782576-19.478034 5.167642-29.415807 7.552707-9.937772 1.590044-19.875545 3.577598-29.813317 4.770131l-7.552707.795022-7.552707.397511c-5.167642.397511-9.937772.795022-15.105414.795022l-15.105415.397511h-140.321347l-249.239333.39751v19.080524l249.239333-.397511h140.321347l15.900436-.397511c5.167642 0 10.732794-.795022 15.900436-1.192533l7.950218-.795022 7.950218-1.192532c10.732794-1.192533 21.068078-3.180087 31.403361-5.167642 10.335283-2.385065 20.670567-4.770131 31.00585-7.950218 81.887245-23.453143 155.426761-74.732049 206.308157-142.706413 25.440698-34.185937 45.713753-71.949473 58.831613-112.495584 6.757685-20.273056 11.925327-40.943623 15.105414-62.0117 3.180087-21.068078 5.167642-42.136155 5.167642-63.601744.397511-19.875545-1.192533-40.943623-4.770131-62.0117z"/><path d="m804.411425 453.969371c-2.782576-19.080523-7.950218-37.763535-13.912881-56.049036-11.925327-36.571003-30.608339-70.75694-53.26646-101.76279-46.111265-61.61419-112.495585-108.122965-186.432612-129.191042-9.142751-2.782576-18.683012-4.770131-27.825763-7.155196-9.540262-1.590044-19.080523-3.577598-28.620785-4.37262l-7.155196-.795022-7.155196-.397511c-4.770131-.397511-9.540262-.795022-14.310392-.795022l-14.310393-.397511h-140.321347l-249.239333.397511v19.080523l249.239333-.397511h139.923837l13.51537.397511c4.37262 0 9.142751.795022 13.515371.795022l6.757685.397511 6.757685.795022c9.142751.795022 17.88799 2.782576 27.030741 4.37262 8.74524 1.987554 17.88799 3.975109 26.633231 6.757685 69.961918 19.875545 132.76864 63.999255 176.494838 122.035846 43.726199 58.434102 67.974364 130.781086 67.974364 203.52558 0 73.142005-24.248165 145.488989-67.974364 203.52558s-106.532921 102.160301-176.494838 122.035846c-8.74524 2.782576-17.49048 4.770131-26.633231 6.757685-9.142751 1.590044-17.88799 3.180087-27.030741 4.37262l-6.757685.795022-6.757685.397511c-4.37262.397511-9.142751.795022-13.515371.795021l-13.51537.397511h-140.321348l-249.239333.397511v19.080523l249.239333-.397511h140.321348l14.310392-.39751c4.770131 0 9.540262-.795022 14.310392-.795022l7.155196-.397511 7.155197-.795022c9.540262-1.192533 19.080523-2.782576 28.620784-4.37262 9.540262-1.987554 18.683012-4.37262 27.825763-7.155196 73.937027-21.068078 140.321347-67.576853 186.432612-129.191042 23.055632-31.00585 41.341133-65.191787 53.26646-101.76279 5.962663-18.285501 10.732794-36.968514 13.912881-56.049037 2.782576-19.080523 4.37262-38.161046 4.770131-57.63908.397511-18.683012-1.192533-37.763535-4.37262-56.844059z"/><path d="m707.021255 319.213177c-41.341133-54.856504-100.570257-96.595148-166.557066-115.278161-8.347729-2.385065-16.695458-4.37262-25.043187-6.360174-8.347729-1.590044-16.695458-3.180087-25.440697-3.975109l-6.360175-.795022-6.360174-.397511c-4.37262-.397511-8.74524-.795022-12.720349-.795022l-12.720349-.39751h-139.923836l-250.034355.39751v19.080524l249.239333-.397511h139.923837l12.322837.397511c3.975109 0 7.950218.397511 11.925327.795021l5.962664.397511 5.962663.795022c7.950218.795022 15.900436 2.385065 23.850654 3.577598 7.950218 1.987554 15.900436 3.577598 23.453143 5.962664 62.0117 17.49048 117.663226 56.844058 156.619294 108.520475s60.421657 115.675671 60.421657 180.867459-21.465589 128.793531-60.421657 180.867459c-38.956068 51.676417-94.607594 90.632485-156.619294 108.520475-7.552707 2.385065-15.502925 3.975109-23.453143 5.962663-7.950218 1.192533-15.900436 2.782576-23.850654 3.577598l-5.962663.795022-5.962664.397511c-3.975109.397511-7.950218.795022-12.322837.795022l-12.322838.397511h-140.321348l-249.239333.397511v19.080523l249.239333-.397511h140.321348l13.117859-.397511c4.37262 0 8.74524-.397511 12.720349-.795022l6.360174-.397511 6.360175-.795021c8.74524-.795022 17.092969-2.385065 25.440697-3.975109 8.347729-1.987554 16.695458-3.577598 25.043187-6.360175 65.986809-18.683012 125.215933-60.421657 166.557066-115.27816 41.341133-55.254015 64.396766-123.228379 63.999255-192.395275.795022-69.166896-21.863099-137.14126-63.204233-192.395275z"/><path d="m676.412916 342.268809c-36.571003-48.49633-88.64493-85.067332-146.681522-101.76279-7.155196-2.385065-14.707903-3.975109-21.863099-5.565153-7.552707-1.192533-14.707903-2.782576-22.26061-3.577598l-5.565153-.795022-5.565152-.39751c-3.975109 0-7.552707-.795022-11.527816-.795022l-11.527817-.397511h-139.923836l-249.636844.795022v19.080523l249.239333-.397511h139.923837l10.732794.397511c3.577598 0 7.155196.397511 10.732794.795022l5.167642.397511 5.167641.795021c7.155196.795022 13.912881 1.987554 21.068078 3.180088 6.757685 1.590044 13.912881 3.180087 20.273056 5.167641 54.061482 15.105414 102.955323 49.291352 137.14126 94.607594s52.471439 100.967768 52.471438 157.811827c0 56.844058-18.683012 112.495584-52.471438 157.811826-34.185937 45.316242-82.682267 79.50218-136.743749 94.607594-6.757685 1.987554-13.515371 3.577598-20.273056 5.167642-6.757685 1.192533-13.912881 2.782576-21.068078 3.180087l-5.167641.795022-5.167642.397511c-3.577598 0-7.155196.795022-10.732794.795022l-10.732795.397511h-140.321347l-249.636844.397511v19.080523l249.239333-.397511h140.321348l11.527816-.397511c3.975109 0 7.552707-.397511 11.527816-.795022l5.565152-.397511 5.565153-.795022c7.552707-.795022 15.105414-2.385065 22.26061-3.577598 7.155196-1.590044 14.707903-3.180087 21.8631-5.565152 58.036591-16.297947 110.50803-53.26646 146.681521-101.76279 36.968514-48.098819 56.844059-108.122965 56.844059-168.942132s-19.875545-120.843313-56.446548-169.339643z"/><path d="m936.385044 432.901294c-3.975109-26.235719-10.732794-51.676417-19.080523-77.117114-16.297947-50.086373-41.738644-97.39017-73.142006-139.526326-15.900436-21.068078-33.390915-40.943623-52.471438-59.229124s-39.353579-34.980959-61.216679-50.086373c-21.863099-15.105414-44.521221-28.223274-68.371874-39.75109-23.850654-11.527816-48.893841-20.670567-73.937027-28.223274-12.720349-3.975109-25.440698-6.757685-38.558558-9.540261-13.11786-2.385065-25.838208-4.770131-38.956068-6.360175l-9.937772-1.192532-9.937773-.795022c-6.757685-.397511-13.11786-1.192533-19.875545-1.192533l-19.875544-.397511h-140.718859l-248.444311.397511v19.080523l249.239333-.397511h140.718858l19.080523.397511c6.360174 0 12.720349.795022 19.080524 1.192533l9.540261.795022 9.540262 1.192533c12.720349 1.192533 25.043187 3.577598 37.763535 5.962663 12.322838 2.782576 24.645676 5.565153 36.968514 9.142751 24.248165 7.155196 48.098819 15.900436 71.154451 27.030741s44.918732 23.850654 65.589298 38.161046c21.068078 14.310392 40.546112 30.608339 58.831613 48.098819s34.980959 36.571003 50.483884 56.844058c30.210828 40.546112 54.458993 85.862354 70.359429 134.358684 7.950218 24.248165 14.310392 48.893841 18.285501 73.937027 3.975109 25.043187 5.962663 50.483884 5.962664 75.527071 0 25.440698-1.987554 50.483884-5.962664 75.527071-3.975109 25.043187-10.335283 49.688862-18.285501 73.937027-15.900436 48.49633-40.148601 93.812572-70.359429 134.358683-15.105414 20.273056-32.198383 39.353579-50.483884 56.844059s-37.763535 33.788426-58.831613 48.098819c-21.068078 14.310392-42.931177 27.030741-65.589298 38.161046-23.055632 11.130305-46.906286 19.875545-71.154451 27.030741-12.322838 3.577598-24.645676 6.360174-36.968514 9.142751-12.322838 2.385065-25.043187 4.770131-37.763535 5.962663l-9.540262 1.192533-9.540261.795022c-6.360174.397511-12.720349 1.192533-19.080524 1.192532l-19.080523.397511h-140.321347l-249.239333.397511v19.080523l249.239333-.397511h140.321347l19.478034-.397511c6.360174 0 13.11786-.795022 19.875545-1.192532l9.937773-.795022 9.937772-1.192533c13.11786-1.590044 26.235719-3.975109 38.956068-6.360174 12.720349-2.782576 25.838208-5.962663 38.558557-9.540262 25.440698-7.552707 50.086373-16.695458 73.937028-28.223273 23.850654-11.527816 46.906286-24.645676 68.371874-39.75109 21.863099-15.105414 42.136155-31.800872 61.216679-50.086374 19.080523-18.285501 36.571003-38.161046 52.471438-59.229123 31.403361-42.136155 56.844058-89.439952 73.142005-139.923837 8.347729-25.043187 14.707903-50.881395 19.080524-77.117114 3.975109-26.235719 6.360174-52.471439 6.360174-78.707158-.397511-25.043187-2.385065-51.676417-6.757685-77.514625z"/><path d="m435.918822 965.565898h15.502925l18.285502-.397511c5.962663 0 12.322838-.795022 18.285501-1.192533l9.142751-.795021 9.14275-1.192533c11.925327-1.192533 24.248165-3.577598 36.173492-5.565153 11.925327-2.782576 23.850654-5.167642 35.37847-8.74524 23.453143-6.757685 46.111264-15.502925 68.371875-25.838208 21.863099-10.732794 42.931177-22.658121 63.204233-36.571003 20.273056-13.912881 38.956068-29.415806 56.446547-46.111264 17.49048-16.695458 33.788426-34.980959 48.49633-54.458993 29.018296-38.956068 52.471439-82.682267 67.576853-128.793531 7.552707-23.055632 13.912881-46.906286 17.490479-70.75694 3.975109-24.248165 5.565153-48.49633 5.962664-72.744494 0-24.248165-1.987554-48.49633-5.962664-72.744495-3.577598-24.248165-9.937772-47.701308-17.490479-70.75694-15.105414-46.508775-38.558557-89.837463-67.576853-128.793531-14.707903-19.478034-31.00585-37.763535-48.49633-54.458993s-36.173492-32.595894-56.446547-46.111264c-19.875545-13.912881-41.341133-26.235719-63.204233-36.571003-21.863099-10.335283-44.918732-19.080523-68.371875-25.838208-11.527816-3.577598-23.453143-6.360174-35.37847-8.74524-11.925327-2.385065-23.850654-4.37262-36.173492-5.565153l-9.14275-1.192532-9.142751-.795022c-5.962663-.397511-11.925327-1.192533-18.285501-1.192533l-18.285502-.397511h-140.321347l-249.239333-1.192532v19.080523l249.239333-.397511h140.321347l17.49048.397511c5.962663 0 11.527816.795022 17.49048 1.192532l8.745239.795022 8.74524 1.192533c11.527816 1.192533 23.055632 3.577598 34.583448 5.565152 11.527816 2.385065 22.658121 5.167642 33.788427 8.347729 89.837463 25.838208 170.134665 81.887245 226.183701 156.619294 27.825763 37.366024 50.086373 79.104669 64.794276 123.62589 7.155196 22.26061 13.11786 44.918732 16.695458 67.974363 3.577598 23.055632 5.565153 46.508775 5.565153 69.564408 0 23.453143-1.987554 46.508775-5.565153 69.564407-3.577598 23.055632-9.540262 45.713753-16.695458 67.974364-14.707903 44.521221-36.968514 86.259865-64.794276 123.625889-56.049037 74.334538-136.346238 130.781086-226.183701 156.619294-11.130305 3.577598-22.658121 5.962663-33.788427 8.347729-11.527816 1.987554-23.055632 4.37262-34.583448 5.565152l-8.74524 1.192533-8.745239.795022c-5.962663.397511-11.527816 1.192533-17.49048 1.192533l-17.49048.397511h-139.923836l-249.239333.39751v19.080524l249.239333-.397511z"/><path d="m435.918822 927.404852h15.502925l16.695458-.397511c5.565153 0 11.130305-.795022 16.695458-1.192533l8.347729-.795022 8.347729-1.192532c11.130305-1.192533 21.863099-3.180087 32.993404-5.167642 10.732794-2.385065 21.863099-4.770131 32.595894-7.950218 85.862354-24.645676 162.581958-78.309647 216.245929-149.464098 26.63323-35.775981 48.098819-75.527071 62.0117-118.060737 7.155196-21.068078 12.720349-42.931177 15.900436-64.794276 3.577598-21.863099 5.167642-44.12371 5.565152-66.781831 0-22.26061-1.987554-44.521221-5.565152-66.781831-3.577598-21.863099-9.142751-43.726199-15.900436-64.794277-13.912881-42.533666-35.37847-82.284756-62.0117-118.060737-53.663971-71.154451-130.383575-125.215933-216.245929-149.464097-10.732794-3.180087-21.465589-5.565153-32.595894-7.950218-11.130305-1.987554-21.863099-3.975109-32.993404-5.167642l-8.347729-1.192533-8.347729-.795022c-5.565153-.397511-11.130305-1.192533-16.695458-1.192532l-16.695458-.397511h-140.321347l-249.239333.397511v19.080523l249.239333-.397511h140.321347l15.900436.397511c5.167642 0 10.732794.795022 15.900436 1.192533l7.950218.795021 7.950218 1.192533c10.732794 1.192533 21.068078 3.180087 31.403361 5.167642 10.335283 2.385065 20.670567 4.770131 31.00585 7.950218 81.887245 23.453143 155.426762 74.732049 206.308157 142.706412 25.440698 34.185937 45.713753 71.949473 58.831613 112.495585 6.757685 20.273056 11.925327 40.943623 15.105414 62.0117 3.180087 21.068078 5.167642 42.136155 5.167642 63.601744s-1.987554 42.533666-5.167642 63.601743c-3.180087 21.068078-8.74524 41.738644-15.105414 62.011701-13.11786 40.546112-33.788426 78.309647-58.831613 112.495584-51.278906 67.974364-124.420911 119.25327-206.308157 142.706412-10.335283 3.180087-20.670567 5.565153-31.00585 7.950218-10.335283 1.987554-21.068078 3.975109-31.403361 5.167642l-7.950218 1.192533-7.950218.795022c-5.167642.397511-10.732794 1.192533-15.900436 1.192532l-15.900436.397511h-140.321347l-249.239333.397511v19.080523l249.239333-.397511z"/><path d="m435.918822 889.243805h15.502925l15.105415-.397511c5.167642 0 9.937772-.795022 15.105414-.795021l7.552707-.397511 7.552707-.795022c9.937772-1.192533 19.875545-3.180087 29.813317-4.770131 9.937772-2.385065 19.875545-4.37262 29.415807-7.552707 77.912136-22.26061 147.874054-71.154451 196.370384-135.948727 24.248165-32.595894 43.726199-68.769385 56.049036-107.327943 6.360174-19.080523 11.527816-38.956068 14.707904-58.831613 3.180087-19.875545 4.770131-40.148601 4.77013-60.421656s-1.590044-40.546112-4.77013-60.421657c-3.180087-19.875545-8.347729-39.75109-14.707904-58.831613-12.720349-38.558557-32.198383-74.732049-56.049036-107.327943-48.893841-64.794276-118.458248-113.688117-196.370384-135.948727-9.540262-2.782576-19.478034-5.167642-29.415807-7.552707-9.937772-1.590044-19.875545-3.577598-29.813317-4.770131l-7.552707-.795021-7.552707-.397511c-5.167642-.397511-9.937772-.795022-15.105414-.795022l-15.105415-.397511h-140.321347l-249.239333-.397511v19.080523l249.239333-.397511h140.321347l14.310393.397511c4.770131 0 9.540262.795022 14.310392.795022l7.155196.397511 7.155196.795022c9.540262 1.192533 19.080523 2.782576 28.620785 4.37262 9.540262 1.987554 18.683012 4.37262 27.825763 7.155196 73.937027 21.068078 140.321347 67.576853 186.432612 129.191042 23.055632 31.00585 41.341133 65.191787 53.26646 101.76279 5.962663 18.285501 10.732794 36.968514 13.912881 56.049036 2.782576 19.080523 4.37262 38.161046 4.770131 57.639081 0 19.080523-1.590044 38.558557-4.770131 57.63908-2.782576 19.080523-7.950218 37.763535-13.912881 56.049037-11.925327 36.571003-30.608339 70.75694-53.26646 101.76279-46.111264 61.614189-112.495584 108.122964-186.432612 129.191042-9.142751 2.782576-18.683012 4.770131-27.825763 7.155196-9.540262 1.590044-19.080523 3.577598-28.620785 4.37262l-7.155196.795022-7.155196.397511c-4.770131.397511-9.540262.795022-14.310392.795021l-14.310393.397511h-140.321347l-249.239333.397511v19.080523l249.239333-.397511z"/><path d="m435.521312 851.082759h15.502925l13.51537-.397511c4.770131 0 9.142751-.795022 13.515371-.795022l6.757685-.39751 6.757685-.795022c9.142751-.795022 17.88799-2.782576 27.030741-4.37262 8.74524-1.987554 17.88799-3.975109 26.633231-6.757685 69.961918-19.875545 132.76864-63.999255 176.494838-122.035846 43.726199-58.434102 67.974364-130.781086 67.974364-203.52558 0-73.142005-24.248165-145.488989-67.974364-203.52558s-106.532921-102.160301-176.494838-122.035846c-8.74524-2.782576-17.49048-4.770131-26.633231-6.757686-9.142751-1.590044-17.88799-3.180087-27.030741-4.372619l-6.757685-.795022-6.757685-.397511c-4.37262-.397511-9.142751-.795022-13.515371-.795022l-13.51537-.397511h-139.923837l-249.239333-.397511v19.080523l249.239333-.39751h139.923837l12.720348.39751c4.37262 0 8.74524.397511 12.720349.795022l6.360174.397511 6.360175.795022c8.74524.795022 17.092969 2.385065 25.440697 3.975109 8.347729 1.987554 16.695458 3.577598 25.043187 6.360174 65.986809 18.683012 125.215933 60.421657 166.557066 115.278161 41.341133 55.254015 64.396766 123.228379 63.999255 192.395275 0 69.166896-22.658121 137.14126-63.999255 192.395275-41.341133 54.856504-100.570257 96.595148-166.557066 115.27816-8.347729 2.385065-16.695458 4.37262-25.043187 6.360175-8.347729 1.590044-16.695458 3.180087-25.440697 3.975109l-6.360175.795021-6.360174.397511c-4.37262.397511-8.74524.795022-12.720349.795022l-13.117859.397511h-140.321348l-249.239333.397511v19.080523l249.239333-.397511z"/><path d="m435.521312 812.921713h15.502925l12.322837-.397511c3.975109 0 7.950218-.397511 12.322838-.795022l5.962664-.397511 5.962663-.795022c7.950218-.795022 15.900436-2.385065 23.850654-3.577598 7.950218-1.987554 15.900436-3.577598 23.453143-5.962663 62.0117-17.49048 117.663226-56.844058 156.619294-108.520475s60.421657-115.675671 60.421657-180.867459-21.465589-128.793531-60.421657-180.867459c-38.956068-51.676417-94.607594-90.632485-156.619294-108.520475-7.552707-2.385065-15.502925-3.975109-23.453143-5.962664-7.950218-1.192533-15.900436-2.782576-23.850654-3.577598l-5.962663-.795022-5.962664-.397511c-3.975109-.397511-7.950218-.795022-11.925327-.795021l-12.322838-.397511h-139.923836l-249.636844.397511v19.080523l249.239333-.397511h139.923837l11.527816.397511c3.975109 0 7.552707.397511 11.527816.795021l5.565152.397511 5.565153.795022c7.552707.795022 15.105414 2.385065 22.26061 3.577598 7.155196 1.590044 14.707903 3.180087 21.8631 5.565153 58.036591 16.297947 110.50803 53.26646 146.681521 101.76279 36.571003 48.49633 56.446548 108.520475 56.446548 169.339643s-19.875545 120.843313-56.446548 169.339642c-36.571003 48.49633-88.64493 85.067332-146.681521 101.76279-7.155196 2.385065-14.707903 3.975109-21.8631 5.565153-7.552707 1.192533-14.707903 2.782576-22.26061 3.577598l-5.565153.795022-5.565152.397511c-3.975109 0-7.552707.795022-11.527816.795022l-11.527816.397511h-140.321348l-249.239333.39751v19.080524l249.239333-.397511z"/></g></svg>